<svg xmlns="http://www.w3.org/2000/svg" xmlns:xlink="http://www.w3.org/1999/xlink" width="500" zoomAndPan="magnify" viewBox="0 0 375 374.999991" height="500" preserveAspectRatio="xMidYMid meet" version="1.0"><defs><g/><clipPath id="0ebdba4cbb"><rect x="0" width="153" y="0" height="80"/></clipPath><clipPath id="de387f1ecd"><path d="M 0.460938 1.03125 L 42.429688 1.03125 L 42.429688 43 L 0.460938 43 Z M 0.460938 1.03125 " clip-rule="nonzero"/></clipPath><clipPath id="9b4ec2e239"><path d="M 0.460938 42.128906 L 19.171875 42.128906 L 19.171875 83.96875 L 0.460938 83.96875 Z M 0.460938 42.128906 " clip-rule="nonzero"/></clipPath><clipPath id="7399782a12"><path d="M 0.460938 0.128906 L 19.171875 0.128906 L 19.171875 41.96875 L 0.460938 41.96875 Z M 0.460938 0.128906 " clip-rule="nonzero"/></clipPath><clipPath id="d14287cd4f"><rect x="0" width="20" y="0" height="42"/></clipPath><clipPath id="be3f459adb"><path d="M 31.136719 35.792969 L 62.984375 35.792969 L 62.984375 49.949219 L 31.136719 49.949219 Z M 31.136719 35.792969 " clip-rule="nonzero"/></clipPath><clipPath id="f73d0b1d48"><path d="M 0.136719 0.792969 L 31.984375 0.792969 L 31.984375 14.949219 L 0.136719 14.949219 Z M 0.136719 0.792969 " clip-rule="nonzero"/></clipPath><clipPath id="01d13a9868"><rect x="0" width="32" y="0" height="15"/></clipPath><clipPath id="16c5f710c8"><path d="M 47.921875 1.035156 L 65.496094 1.035156 L 65.496094 19.519531 L 47.921875 19.519531 Z M 47.921875 1.035156 " clip-rule="nonzero"/></clipPath><clipPath id="ba9dab8d47"><path d="M 0.921875 0.0351562 L 18.496094 0.0351562 L 18.496094 18.519531 L 0.921875 18.519531 Z M 0.921875 0.0351562 " clip-rule="nonzero"/></clipPath><clipPath id="5a41385868"><rect x="0" width="19" y="0" height="19"/></clipPath><clipPath id="2c925c8ed4"><rect x="0" width="66" y="0" height="85"/></clipPath></defs><rect x="-37.5" width="450" fill="#ffffff" y="-37.499999" height="449.999989" fill-opacity="1"/><rect x="-37.5" width="450" fill="#1e40af" y="-37.499999" height="449.999989" fill-opacity="1"/><g transform="matrix(1, 0, 0, 1, 143, 147)"><g clip-path="url(#0ebdba4cbb)"><g fill="#fffef0" fill-opacity="1"><g transform="translate(0.118672, 58.59834)"><g><path d="M 5.5 0 L 5.5 -37.71875 L 27.109375 -37.71875 L 27.109375 -33.296875 L 10.234375 -33.296875 L 10.234375 -20.265625 L 25.703125 -20.265625 L 25.703125 -15.890625 L 10.234375 -15.890625 L 10.234375 0 Z M 5.5 0 "/></g></g></g><g fill="#fffef0" fill-opacity="1"><g transform="translate(25.441026, 58.59834)"><g><path d="M 5.015625 0 L 5.015625 -27.96875 L 9.53125 -27.96875 L 9.53125 0 Z M 3.609375 -36.109375 C 3.609375 -37.148438 3.941406 -38 4.609375 -38.65625 C 5.273438 -39.320312 6.164062 -39.65625 7.28125 -39.65625 C 8.394531 -39.65625 9.273438 -39.320312 9.921875 -38.65625 C 10.566406 -38 10.890625 -37.148438 10.890625 -36.109375 C 10.890625 -35.097656 10.566406 -34.257812 9.921875 -33.59375 C 9.273438 -32.9375 8.394531 -32.609375 7.28125 -32.609375 C 6.164062 -32.609375 5.273438 -32.9375 4.609375 -33.59375 C 3.941406 -34.257812 3.609375 -35.097656 3.609375 -36.109375 Z M 3.609375 -36.109375 "/></g></g></g><g fill="#fffef0" fill-opacity="1"><g transform="translate(35.245857, 58.59834)"><g><path d="M 5.015625 0 L 5.015625 -27.96875 L 8.734375 -27.96875 L 9.21875 -23.875 C 10.4375 -25.5625 11.914062 -26.78125 13.65625 -27.53125 C 15.40625 -28.289062 17.210938 -28.671875 19.078125 -28.671875 C 22.816406 -28.671875 25.726562 -27.484375 27.8125 -25.109375 C 29.894531 -22.742188 30.9375 -19.566406 30.9375 -15.578125 L 30.9375 0 L 26.40625 0 L 26.40625 -15.140625 C 26.40625 -17.984375 25.695312 -20.226562 24.28125 -21.875 C 22.863281 -23.53125 20.929688 -24.359375 18.484375 -24.359375 C 16.753906 -24.359375 15.21875 -23.9375 13.875 -23.09375 C 12.53125 -22.25 11.46875 -21.050781 10.6875 -19.5 C 9.914062 -17.957031 9.53125 -16.164062 9.53125 -14.125 L 9.53125 0 Z M 5.015625 0 "/></g></g></g><g fill="#fffef0" fill-opacity="1"><g transform="translate(65.902363, 58.59834)"><g><path d="M 5.5 0 L 5.5 -37.71875 L 28.40625 -37.71875 L 28.40625 -33.296875 L 10.234375 -33.296875 L 10.234375 -21.390625 L 27.046875 -21.390625 L 27.046875 -17.03125 L 10.234375 -17.03125 L 10.234375 -4.421875 L 29 -4.421875 L 29 0 Z M 5.5 0 "/></g></g></g><g fill="#fffef0" fill-opacity="1"><g transform="translate(93.649334, 58.59834)"><g><path d="M 4.046875 10.78125 L 4.046875 6.515625 L 6.796875 6.515625 C 8.585938 6.515625 9.894531 6.253906 10.71875 5.734375 C 11.550781 5.210938 12.253906 4.179688 12.828125 2.640625 L 14.125 -0.640625 L 0.859375 -27.96875 L 5.921875 -27.96875 L 12.234375 -14.765625 L 16.328125 -6.09375 L 19.71875 -14.765625 L 24.953125 -27.96875 L 29.75 -27.96875 L 16.921875 4.359375 C 16.273438 6.046875 15.53125 7.359375 14.6875 8.296875 C 13.84375 9.234375 12.828125 9.878906 11.640625 10.234375 C 10.453125 10.597656 8.976562 10.78125 7.21875 10.78125 Z M 4.046875 10.78125 "/></g></g></g><g fill="#fffef0" fill-opacity="1"><g transform="translate(119.510492, 58.59834)"><g><path d="M 17.140625 0.703125 C 14.335938 0.703125 11.859375 0.0820312 9.703125 -1.15625 C 7.546875 -2.394531 5.851562 -4.128906 4.625 -6.359375 C 3.40625 -8.585938 2.796875 -11.140625 2.796875 -14.015625 C 2.796875 -16.890625 3.40625 -19.429688 4.625 -21.640625 C 5.851562 -23.847656 7.550781 -25.570312 9.71875 -26.8125 C 11.894531 -28.050781 14.382812 -28.671875 17.1875 -28.671875 C 20.175781 -28.671875 22.765625 -27.96875 24.953125 -26.5625 C 27.140625 -25.164062 28.816406 -23.234375 29.984375 -20.765625 C 31.148438 -18.304688 31.679688 -15.441406 31.578125 -12.171875 L 7.390625 -12.171875 C 7.742188 -9.554688 8.800781 -7.46875 10.5625 -5.90625 C 12.320312 -4.34375 14.53125 -3.5625 17.1875 -3.5625 C 19.019531 -3.5625 20.691406 -3.953125 22.203125 -4.734375 C 23.710938 -5.523438 24.898438 -6.660156 25.765625 -8.140625 L 30.875 -8.140625 C 29.757812 -5.410156 27.976562 -3.253906 25.53125 -1.671875 C 23.09375 -0.0859375 20.296875 0.703125 17.140625 0.703125 Z M 7.4375 -16.171875 L 27.046875 -16.171875 C 26.585938 -18.722656 25.46875 -20.734375 23.6875 -22.203125 C 21.90625 -23.671875 19.738281 -24.40625 17.1875 -24.40625 C 14.601562 -24.40625 12.429688 -23.648438 10.671875 -22.140625 C 8.910156 -20.640625 7.832031 -18.648438 7.4375 -16.171875 Z M 7.4375 -16.171875 "/></g></g></g></g></g><g transform="matrix(1, 0, 0, 1, 66, 145)"><g clip-path="url(#2c925c8ed4)"><g clip-path="url(#de387f1ecd)"><path fill="#ffffff" d="M 42.289062 19.65625 L 42.289062 1.03125 C 19.1875 1.03125 0.460938 19.757812 0.460938 42.859375 L 19.085938 42.859375 C 19.085938 30.046875 29.476562 19.65625 42.289062 19.65625 Z M 42.289062 19.65625 " fill-opacity="1" fill-rule="nonzero"/></g><g clip-path="url(#9b4ec2e239)"><g transform="matrix(1, 0, 0, 1, 0, 42)"><g clip-path="url(#d14287cd4f)"><g clip-path="url(#7399782a12)"><path fill="#ffffff" d="M 0.460938 0.128906 L 19.171875 0.128906 L 19.171875 41.933594 L 0.460938 41.933594 Z M 0.460938 0.128906 " fill-opacity="1" fill-rule="nonzero"/></g></g></g></g><g clip-path="url(#be3f459adb)"><g transform="matrix(1, 0, 0, 1, 31, 35)"><g clip-path="url(#01d13a9868)"><g clip-path="url(#f73d0b1d48)"><path fill="#00bf63" d="M 31.984375 0.792969 L 31.984375 14.949219 L 0.128906 14.949219 L 0.128906 0.792969 Z M 31.984375 0.792969 " fill-opacity="1" fill-rule="nonzero"/></g></g></g></g><g clip-path="url(#16c5f710c8)"><g transform="matrix(1, 0, 0, 1, 47, 1)"><g clip-path="url(#5a41385868)"><g clip-path="url(#ba9dab8d47)"><path fill="#d6002e" d="M 18.496094 0.0351562 L 18.496094 18.5 L 0.921875 18.5 L 0.921875 0.0351562 Z M 18.496094 0.0351562 " fill-opacity="1" fill-rule="nonzero"/></g></g></g></g></g></g></svg>