<svg xmlns="http://www.w3.org/2000/svg" xmlns:xlink="http://www.w3.org/1999/xlink" width="500" zoomAndPan="magnify" viewBox="0 0 375 374.999991" height="500" preserveAspectRatio="xMidYMid meet" version="1.0"><defs><clipPath id="82bd87a506"><path d="M 0.265625 1.195312 L 103.804688 1.195312 L 103.804688 104.730469 L 0.265625 104.730469 Z M 0.265625 1.195312 " clip-rule="nonzero"/></clipPath><clipPath id="657429cefb"><path d="M 0.265625 102.585938 L 46.421875 102.585938 L 46.421875 205.804688 L 0.265625 205.804688 Z M 0.265625 102.585938 " clip-rule="nonzero"/></clipPath><clipPath id="220fb0945c"><path d="M 0.265625 0.585938 L 46.421875 0.585938 L 46.421875 103.804688 L 0.265625 103.804688 Z M 0.265625 0.585938 " clip-rule="nonzero"/></clipPath><clipPath id="9b39e74b72"><rect x="0" width="47" y="0" height="104"/></clipPath><clipPath id="176a2870ed"><path d="M 75.945312 86.949219 L 154.519531 86.949219 L 154.519531 121.878906 L 75.945312 121.878906 Z M 75.945312 86.949219 " clip-rule="nonzero"/></clipPath><clipPath id="72e5a65790"><path d="M 0.945312 0.949219 L 79.519531 0.949219 L 79.519531 35.878906 L 0.945312 35.878906 Z M 0.945312 0.949219 " clip-rule="nonzero"/></clipPath><clipPath id="caeaa02da0"><rect x="0" width="80" y="0" height="36"/></clipPath><clipPath id="ac5c67168d"><path d="M 117.359375 1.199219 L 160.710938 1.199219 L 160.710938 46.800781 L 117.359375 46.800781 Z M 117.359375 1.199219 " clip-rule="nonzero"/></clipPath><clipPath id="ae1fd87322"><path d="M 0.359375 0.199219 L 43.710938 0.199219 L 43.710938 45.800781 L 0.359375 45.800781 Z M 0.359375 0.199219 " clip-rule="nonzero"/></clipPath><clipPath id="69a86521f3"><rect x="0" width="44" y="0" height="46"/></clipPath><clipPath id="3c018d38e8"><rect x="0" width="161" y="0" height="206"/></clipPath></defs><rect x="-37.5" width="450" fill="#ffffff" y="-37.499999" height="449.999989" fill-opacity="1"/><rect x="-37.5" width="450" fill="#1e40af" y="-37.499999" height="449.999989" fill-opacity="1"/><g transform="matrix(1, 0, 0, 1, 107, 84)"><g clip-path="url(#3c018d38e8)"><g clip-path="url(#82bd87a506)"><path fill="#ffffff" d="M 103.460938 47.144531 L 103.460938 1.195312 C 46.46875 1.195312 0.265625 47.394531 0.265625 104.386719 L 46.21875 104.386719 C 46.21875 72.773438 71.847656 47.144531 103.460938 47.144531 Z M 103.460938 47.144531 " fill-opacity="1" fill-rule="nonzero"/></g><g clip-path="url(#657429cefb)"><g transform="matrix(1, 0, 0, 1, 0, 102)"><g clip-path="url(#9b39e74b72)"><g clip-path="url(#220fb0945c)"><path fill="#ffffff" d="M 0.265625 0.585938 L 46.421875 0.585938 L 46.421875 103.71875 L 0.265625 103.71875 Z M 0.265625 0.585938 " fill-opacity="1" fill-rule="nonzero"/></g></g></g></g><g clip-path="url(#176a2870ed)"><g transform="matrix(1, 0, 0, 1, 75, 86)"><g clip-path="url(#caeaa02da0)"><g clip-path="url(#72e5a65790)"><path fill="#00bf63" d="M 79.519531 0.949219 L 79.519531 35.878906 L 0.925781 35.878906 L 0.925781 0.949219 Z M 79.519531 0.949219 " fill-opacity="1" fill-rule="nonzero"/></g></g></g></g><g clip-path="url(#ac5c67168d)"><g transform="matrix(1, 0, 0, 1, 117, 1)"><g clip-path="url(#69a86521f3)"><g clip-path="url(#ae1fd87322)"><path fill="#d6002e" d="M 43.710938 0.199219 L 43.710938 45.753906 L 0.359375 45.753906 L 0.359375 0.199219 Z M 43.710938 0.199219 " fill-opacity="1" fill-rule="nonzero"/></g></g></g></g></g></g></svg>